<?xml version="1.0" encoding="iso-8859-1"?>
<!-- Generator: Adobe Illustrator 19.0.0, SVG Export Plug-In . SVG Version: 6.00 Build 0)  -->
<svg xmlns="http://www.w3.org/2000/svg" xmlns:xlink="http://www.w3.org/1999/xlink" version="1.1" id="Layer_1" x="0px" y="0px" viewBox="0 0 512 512" style="enable-background:new 0 0 512 512;" xml:space="preserve" width="512px" height="512px">
<g>
	<g>
		<path d="M506.849,206.542L348.547,346.634L506.88,487.402C510.042,481.25,512,474.381,512,467V227    C512,219.595,510.032,212.709,506.849,206.542z" fill="#aa8c67"/>
	</g>
</g>
<g>
	<g>
		<path d="M325.999,366.715l-40.365,35.949c-16.891,14.78-42.363,14.766-59.268,0L186,366.715L26.926,508.146    C32.468,510.59,38.564,512,45,512h422c6.436,0,12.532-1.41,18.074-3.854L325.999,366.715z" fill="#aa8c67"/>
	</g>
</g>
<g>
	<g>
		<path d="M5.151,206.542C1.968,212.709,0,219.595,0,227v240c0,7.381,1.957,14.249,5.12,20.402l158.333-140.768L5.151,206.542z" fill="#aa8c67"/>
	</g>
</g>
<g>
	<g>
		<path d="M346,122h-45V15c0-8.291-6.709-15-15-15h-60c-8.291,0-15,6.709-15,15v107h-45c-12.352,0-19.389,14.16-11.997,23.994    l90,120c5.989,8.005,18.005,8.005,23.994,0l90-120C365.389,136.16,358.352,122,346,122z" fill="#aa8c67"/>
	</g>
</g>
<g>
	<g>
		<path d="M467,182h-98.505l-76.503,101.997c-17.858,23.882-53.998,24.042-72.012-0.029L143.509,182H45    c-6.411,0-12.486,1.392-18.01,3.818l219.123,194.258c5.654,4.922,14.121,4.922,19.775,0L485.01,185.818    C479.486,183.392,473.41,182,467,182z" fill="#aa8c67"/>
	</g>
</g>
<g>
</g>
<g>
</g>
<g>
</g>
<g>
</g>
<g>
</g>
<g>
</g>
<g>
</g>
<g>
</g>
<g>
</g>
<g>
</g>
<g>
</g>
<g>
</g>
<g>
</g>
<g>
</g>
<g>
</g>
</svg>
